<svg xmlns="http://www.w3.org/2000/svg" xmlns:xlink="http://www.w3.org/1999/xlink" width="1000" zoomAndPan="magnify" viewBox="0 0 750 749.999995" height="1000" preserveAspectRatio="xMidYMid meet" version="1.0"><defs><clipPath id="209b444192"><path d="M 75 61.433594 L 688.566406 61.433594 L 688.566406 675 L 75 675 Z M 75 61.433594 " clip-rule="nonzero"/></clipPath><clipPath id="5fd31738d2"><path d="M 111.28125 318.6875 C 129.132812 340.152344 129.167969 397.101562 111.417969 418.648438 C 89.101562 445.738281 75.734375 480.398438 75.734375 518.078125 C 75.734375 605.09375 146.222656 675 232.289062 675 C 270.164062 675 304.832031 661.679688 331.90625 639.429688 C 353.507812 621.679688 410.800781 621.675781 432.398438 639.425781 C 459.476562 661.679688 494.144531 675 532.027344 675 C 618.09375 675 688.566406 605.09375 688.566406 518.078125 C 688.566406 480.117188 674.785156 445.226562 652.089844 418.046875 C 634.261719 396.691406 634.261719 340.472656 652.066406 319.09375 C 674.773438 291.828125 688.566406 256.738281 688.566406 218.355469 C 688.566406 132.089844 618.09375 61.433594 532.027344 61.433594 C 494.46875 61.433594 460.207031 74.460938 433.273438 96.265625 C 411.347656 114.015625 351.867188 113.816406 329.941406 96.070312 C 303.152344 74.382812 268.984375 61.433594 231.539062 61.433594 C 145.472656 61.433594 75 132.089844 75 218.355469 C 75 256.546875 88.65625 291.480469 111.28125 318.6875 Z M 111.28125 318.6875 " clip-rule="nonzero"/></clipPath><clipPath id="45cdbd7f4e"><path d="M 0 0.433594 L 613.566406 0.433594 L 613.566406 614 L 0 614 Z M 0 0.433594 " clip-rule="nonzero"/></clipPath><clipPath id="ca65430073"><path d="M 36.28125 257.6875 C 54.132812 279.152344 54.167969 336.101562 36.417969 357.648438 C 14.101562 384.738281 0.734375 419.398438 0.734375 457.078125 C 0.734375 544.09375 71.222656 614 157.289062 614 C 195.164062 614 229.832031 600.679688 256.90625 578.429688 C 278.507812 560.679688 335.800781 560.675781 357.398438 578.425781 C 384.476562 600.679688 419.144531 614 457.027344 614 C 543.09375 614 613.566406 544.09375 613.566406 457.078125 C 613.566406 419.117188 599.785156 384.226562 577.089844 357.046875 C 559.261719 335.691406 559.261719 279.472656 577.066406 258.09375 C 599.773438 230.828125 613.566406 195.738281 613.566406 157.355469 C 613.566406 71.089844 543.09375 0.433594 457.027344 0.433594 C 419.46875 0.433594 385.207031 13.460938 358.273438 35.265625 C 336.347656 53.015625 276.867188 52.816406 254.941406 35.070312 C 228.152344 13.382812 193.984375 0.433594 156.539062 0.433594 C 70.472656 0.433594 0 71.089844 0 157.355469 C 0 195.546875 13.65625 230.480469 36.28125 257.6875 Z M 36.28125 257.6875 " clip-rule="nonzero"/></clipPath><clipPath id="116d300944"><rect x="0" width="614" y="0" height="614"/></clipPath><clipPath id="a8ec33aee2"><path d="M 163 150 L 611 150 L 611 594 L 163 594 Z M 163 150 " clip-rule="nonzero"/></clipPath><clipPath id="a22eb0e6fe"><path d="M 61.433594 334.957031 L 572.5625 136.648438 L 675.378906 401.652344 L 164.25 599.960938 Z M 61.433594 334.957031 " clip-rule="nonzero"/></clipPath><clipPath id="decf03b391"><path d="M 61.433594 334.957031 L 572.5625 136.648438 L 675.378906 401.652344 L 164.25 599.960938 Z M 61.433594 334.957031 " clip-rule="nonzero"/></clipPath></defs><g clip-path="url(#209b444192)"><g clip-path="url(#5fd31738d2)"><g transform="matrix(1, 0, 0, 1, 75, 61)"><g clip-path="url(#116d300944)"><g clip-path="url(#45cdbd7f4e)"><g clip-path="url(#ca65430073)"><path fill="#1877f2" d="M 0 0.433594 L 613.566406 0.433594 L 613.566406 614 L 0 614 Z M 0 0.433594 " fill-opacity="1" fill-rule="nonzero"/></g></g></g></g></g></g><g clip-path="url(#a8ec33aee2)"><g clip-path="url(#a22eb0e6fe)"><g clip-path="url(#decf03b391)"><path fill="#ffffff" d="M 562.554688 151.058594 L 415.90625 198.132812 C 407.132812 200.835938 406.039062 212.484375 414.132812 217.066406 L 467.390625 247.628906 C 472.707031 250.476562 473.855469 257.050781 471.378906 261.519531 L 398.515625 386.628906 C 395.429688 391.335938 389.941406 393.464844 384.625 390.613281 L 320.222656 356.65625 L 300.886719 346.613281 C 295.570312 343.765625 289.472656 346.128906 286.996094 350.601562 L 277.464844 367.632812 L 164.835938 578.34375 C 162.359375 582.8125 163.878906 588.539062 167.972656 591.863281 C 172.679688 594.949219 178.644531 594.039062 181.964844 589.941406 L 308.238281 434.285156 C 311.558594 430.191406 316.914062 429.515625 321.144531 431.382812 L 391.472656 467.957031 L 410.808594 478 C 415.886719 480.238281 421.613281 478.71875 424.699219 474.011719 L 435.589844 455.050781 L 528.023438 293.578125 C 530.875 288.261719 537.445312 287.113281 541.917969 289.589844 L 595.175781 320.152344 C 603.269531 324.734375 612.453125 317.660156 610.363281 308.648438 L 576.570312 158.253906 C 574.441406 152.761719 568.042969 148.929688 562.554688 151.058594 Z M 562.554688 151.058594 " fill-opacity="1" fill-rule="nonzero"/></g></g></g></svg>